<svg width="1200" height="630" viewBox="0 0 1200 630" fill="none" xmlns="http://www.w3.org/2000/svg">
  <rect width="1200" height="630" fill="#f9f5ff" />
  <!-- Decorative Gradient -->
  <rect x="0" y="0" width="1200" height="630" fill="url(#gradient)" />
  <!-- Logo/Icon -->
  <g transform="translate(300, 220) scale(3)">
    <path d="M12 7.5a4.5 4.5 0 1 1 4.5 4.5M12 7.5A4.5 4.5 0 1 0 7.5 12M12 7.5V9m-4.5 3a4.5 4.5 0 1 0 4.5 4.5M7.5 12H9m3 4.5a4.5 4.5 0 1 0 4.5-4.5M12 16.5V15m4.5-3a4.5 4.5 0 1 1-4.5-4.5M16.5 12H15" stroke="#9333ea" stroke-width="2" stroke-linecap="round" stroke-linejoin="round"/>
  </g>
  <!-- Text -->
  <text x="600" y="380" font-family="Arial, sans-serif" font-size="60" font-weight="bold" text-anchor="middle" fill="#9333ea">Viv Health</text>
  <text x="600" y="440" font-family="Arial, sans-serif" font-size="24" text-anchor="middle" fill="#6b7280">Women's healthcare made accessible</text>
  <!-- Definitions -->
  <defs>
    <linearGradient id="gradient" x1="0" y1="0" x2="1200" y2="630" gradientUnits="userSpaceOnUse">
      <stop offset="0" stop-color="#f9f5ff" />
      <stop offset="1" stop-color="#f3e8ff" />
    </linearGradient>
  </defs>
</svg> 